<svg width="1000" height="1000" viewBox="0 0 1000 1000" fill="none" xmlns="http://www.w3.org/2000/svg">
<path d="M467.958 579.323C447.938 533.26 418.208 443.573 447.417 347.802C495.333 190.687 683.354 78.0203 909.615 92.6245C939.667 284.302 865.615 463.875 726.104 544C632.125 597.968 534.771 591.677 488.667 585.239C535.875 549.458 588.865 503.489 641.833 445.291C723.604 355.458 778.177 266.322 814.302 195.197C762.406 267.583 700.042 345.77 625.542 425.666C571.781 483.312 518.688 534.354 467.958 579.323Z" fill="#00897B"/>
<path d="M407.635 584.333C372.323 595.01 304.364 609.052 237 579.593C126.468 531.25 60.3122 384.5 90.2393 220.687C232.625 215.104 357.312 284.416 403.864 393.01C435.218 466.166 422.343 536.645 413.718 569.729C391.635 532.25 362.614 489.677 324.677 446.073C266.114 378.781 205.75 331.364 156.937 298.958C205.323 342.979 257.041 395.125 308.979 456.291C346.448 500.416 379.156 543.5 407.635 584.333Z" fill="#00897B"/>
<path d="M179.954 832.441C172.308 832.441 165.172 831.004 158.537 828.108C151.891 825.191 146.047 821.098 140.995 815.816C136.047 810.65 132.172 804.639 129.37 797.775C126.589 790.889 125.204 783.587 125.204 775.858V736.025C125.204 728.306 126.537 721.014 129.204 714.15C131.87 707.264 135.641 701.223 140.537 696.025C145.422 690.858 151.172 686.837 157.787 683.941C164.391 681.025 171.516 679.566 179.162 679.566C190.433 679.566 200.287 682.233 208.704 687.566C216.037 692.233 222.172 698.566 227.12 706.566C228.558 708.712 229.287 710.931 229.287 713.233C229.287 715.816 228.297 718.108 226.329 720.108C224.266 722.171 221.829 723.191 218.995 723.191C215.631 723.191 213.183 721.931 211.662 719.4C207.995 712.983 203.995 708.296 199.662 705.316C194.214 701.733 187.381 699.941 179.162 699.941C174.266 699.941 169.714 700.889 165.495 702.775C161.297 704.639 157.714 707.212 154.745 710.483C151.766 713.764 149.474 717.598 147.87 721.983C146.287 726.379 145.495 731.014 145.495 735.9V775.983C145.495 780.879 146.339 785.504 148.037 789.858C149.756 794.191 152.141 798.004 155.204 801.275C158.256 804.639 161.891 807.264 166.12 809.15C170.37 811.014 174.974 811.941 179.954 811.941C188.12 811.941 195.141 809.962 201.037 805.983C205.839 802.712 210.099 797.816 213.829 791.316V770.608H196.995C194.183 770.608 191.829 769.629 189.912 767.65C187.995 765.65 187.037 763.233 187.037 760.4C187.037 757.65 188.006 755.296 189.954 753.316C191.891 751.316 194.245 750.316 196.995 750.316L222.329 750.441C225.162 750.441 227.579 751.389 229.579 753.275C231.599 755.139 232.62 757.514 232.62 760.4V789.941C232.62 791.389 232.464 792.962 232.162 794.65C231.849 796.316 231.506 797.587 231.12 798.441C226.006 809.056 219.099 817.337 210.412 823.275C201.412 829.389 191.256 832.441 179.954 832.441Z" fill="#00897B"/>
<path d="M297.348 831.191C291.9 831.191 286.869 830.275 282.265 828.441C277.65 826.608 273.619 823.973 270.182 820.525C266.682 817.087 263.973 813.014 262.057 808.316C260.14 803.629 259.182 798.462 259.182 792.816V691.108C259.182 688.223 260.14 685.806 262.057 683.858C263.973 681.921 266.307 680.941 269.057 680.941C271.942 680.941 274.39 681.889 276.39 683.775C278.442 685.858 279.473 688.306 279.473 691.108V792.816C279.473 798.712 280.994 803.233 284.057 806.4C287.109 809.566 291.307 811.191 296.64 811.275H297.348C300.234 811.275 302.609 812.233 304.473 814.15C306.359 816.046 307.307 818.4 307.307 821.233C307.307 824.129 306.359 826.514 304.473 828.4C302.609 830.264 300.234 831.191 297.348 831.191Z" fill="#00897B"/>
<path d="M370.98 832.441C363.417 832.441 356.198 831.004 349.313 828.108C342.448 825.191 336.459 821.181 331.354 816.066C326.157 810.962 322.104 804.983 319.188 798.15C316.292 791.316 314.854 784.129 314.854 776.566C314.854 768.931 316.292 761.691 319.188 754.858C322.104 748.025 326.157 742.056 331.354 736.941C336.459 731.837 342.448 727.837 349.313 724.941C356.198 722.025 363.417 720.566 370.98 720.566C378.448 720.566 385.605 722.004 392.438 724.858C399.271 727.723 405.282 731.712 410.48 736.816C415.584 741.931 419.615 747.889 422.563 754.691C425.5 761.473 427.021 768.608 427.105 776.108C427.105 778.858 426.188 781.15 424.355 782.983C422.521 784.816 420.146 785.733 417.23 785.733H337.313C338.146 789.629 339.584 793.212 341.646 796.483C343.698 799.764 346.209 802.671 349.188 805.191C355.459 810.389 362.73 812.983 370.98 812.983C374.782 812.983 378 812.639 380.646 811.941C383.282 811.254 385.938 810.108 388.605 808.525C390.74 807.306 392.771 806.691 394.688 806.691C397.271 806.691 399.584 807.723 401.646 809.775C403.646 811.921 404.646 814.389 404.646 817.191C404.646 821.858 401.282 825.608 394.563 828.441C391.5 829.754 387.938 830.733 383.855 831.4C379.771 832.087 375.48 832.441 370.98 832.441ZM336.73 768.775H406.355C404.907 760.358 400.938 753.483 394.438 748.15C391.292 745.566 387.74 743.556 383.771 742.108C379.823 740.639 375.667 739.9 371.313 739.9C362.23 739.9 354.563 742.691 348.313 748.275C345.25 750.858 342.73 753.931 340.73 757.483C338.75 761.046 337.417 764.806 336.73 768.775Z" fill="#00897B"/>
<path d="M493.037 832.441C485.474 832.441 478.339 831.014 471.62 828.15C464.891 825.296 458.974 821.264 453.87 816.066C448.756 810.962 444.766 805.014 441.912 798.233C439.047 791.431 437.62 784.212 437.62 776.566C437.62 768.931 439.047 761.723 441.912 754.941C444.766 748.139 448.756 742.139 453.87 736.941C458.974 731.754 464.891 727.723 471.62 724.858C478.339 722.004 485.474 720.566 493.037 720.566C500.589 720.566 507.703 721.983 514.37 724.816C521.058 727.629 526.964 731.587 532.078 736.691C537.131 741.806 541.089 747.723 543.953 754.441C546.808 761.171 548.328 768.306 548.495 775.858V821.441C548.495 824.358 547.495 826.837 545.495 828.858C543.516 830.858 541.078 831.858 538.162 831.858C535.266 831.858 532.912 830.879 531.078 828.9C529.245 826.9 528.328 824.421 528.328 821.441L528.203 819.858C523.308 823.889 517.87 827.004 511.87 829.191C505.891 831.358 499.62 832.441 493.037 832.441ZM493.037 812.15C498.006 812.15 502.631 811.254 506.912 809.441C511.183 807.608 514.964 805.014 518.245 801.65C521.433 798.348 523.912 794.546 525.662 790.233C527.433 785.931 528.328 781.379 528.328 776.566C528.328 771.764 527.433 767.212 525.662 762.9C523.912 758.566 521.433 754.764 518.245 751.483C514.964 748.212 511.162 745.65 506.828 743.816C502.516 741.983 497.922 741.066 493.037 741.066C488.141 741.066 483.558 741.983 479.287 743.816C475.006 745.65 471.266 748.212 468.078 751.483C464.881 754.764 462.381 758.566 460.578 762.9C458.766 767.212 457.87 771.764 457.87 776.566C457.87 781.379 458.766 785.931 460.578 790.233C462.381 794.546 464.881 798.348 468.078 801.65C471.266 805.014 475.006 807.608 479.287 809.441C483.558 811.254 488.141 812.15 493.037 812.15Z" fill="#00897B"/>
<path d="M612.623 831.649C610.175 831.649 608.144 831.076 606.54 829.941C604.925 828.774 603.748 827.274 602.998 825.441L564.957 735.566C564.342 734.097 564.04 732.639 564.04 731.191C564.04 728.524 565.009 726.18 566.957 724.149C568.894 722.128 571.332 721.107 574.248 721.107C576.165 721.107 577.936 721.649 579.582 722.732C581.217 723.795 582.457 725.316 583.29 727.316L612.373 797.399L641.248 727.316C642.082 725.482 643.353 724.014 645.082 722.899C646.8 721.795 648.603 721.232 650.498 721.232C653.186 721.232 655.561 722.264 657.623 724.316C659.592 726.316 660.582 728.649 660.582 731.316C660.665 732.399 660.353 733.816 659.665 735.566L621.665 825.441C620.665 827.357 619.394 828.878 617.873 829.982C616.342 831.087 614.592 831.649 612.623 831.649Z" fill="#00897B"/>
<path d="M726.679 832.441C719.117 832.441 711.898 831.004 705.013 828.108C698.148 825.191 692.158 821.181 687.054 816.066C681.856 810.962 677.804 804.983 674.888 798.15C671.992 791.316 670.554 784.129 670.554 776.566C670.554 768.931 671.992 761.691 674.888 754.858C677.804 748.025 681.856 742.056 687.054 736.941C692.158 731.837 698.148 727.837 705.013 724.941C711.898 722.025 719.117 720.566 726.679 720.566C734.148 720.566 741.304 722.004 748.138 724.858C754.971 727.723 760.981 731.712 766.179 736.816C771.283 741.931 775.315 747.889 778.263 754.691C781.2 761.473 782.721 768.608 782.804 776.108C782.804 778.858 781.888 781.15 780.054 782.983C778.221 784.816 775.846 785.733 772.929 785.733H693.013C693.846 789.629 695.283 793.212 697.346 796.483C699.398 799.764 701.908 802.671 704.888 805.191C711.158 810.389 718.429 812.983 726.679 812.983C730.481 812.983 733.7 812.639 736.346 811.941C738.981 811.254 741.638 810.108 744.304 808.525C746.44 807.306 748.471 806.691 750.388 806.691C752.971 806.691 755.283 807.723 757.346 809.775C759.346 811.921 760.346 814.389 760.346 817.191C760.346 821.858 756.981 825.608 750.263 828.441C747.2 829.754 743.638 830.733 739.554 831.4C735.471 832.087 731.179 832.441 726.679 832.441ZM692.429 768.775H762.054C760.606 760.358 756.638 753.483 750.138 748.15C746.992 745.566 743.44 743.556 739.471 742.108C735.523 740.639 731.367 739.9 727.013 739.9C717.929 739.9 710.263 742.691 704.013 748.275C700.95 750.858 698.429 753.931 696.429 757.483C694.45 761.046 693.117 764.806 692.429 768.775Z" fill="#00897B"/>
<path d="M850.903 831.066H803.403C800.737 831.066 798.508 830.129 796.737 828.233C794.987 826.316 794.112 823.837 794.112 820.775C794.112 817.775 794.966 815.389 796.695 813.608C798.414 811.806 800.653 810.9 803.403 810.9H849.195C850.883 810.9 852.57 810.629 854.237 810.066C855.924 809.483 857.456 808.629 858.82 807.483C861.872 804.962 863.403 801.639 863.403 797.525C863.403 793.556 861.956 790.462 859.07 788.233C856.07 786.181 852.82 785.108 849.32 785.025H828.028C823.581 785.025 819.414 784.15 815.528 782.4C811.633 780.65 808.206 778.212 805.237 775.066C802.32 772.098 800.049 768.608 798.445 764.608C796.862 760.587 796.07 756.4 796.07 752.066C796.07 747.796 796.903 743.723 798.57 739.858C800.258 736.004 802.549 732.629 805.445 729.733C808.362 726.816 811.758 724.566 815.653 722.983C819.539 721.379 823.664 720.566 828.028 720.566H867.737C870.653 720.566 873.049 721.441 874.945 723.191C876.862 724.941 877.82 727.348 877.82 730.4C877.82 733.296 876.903 735.733 875.07 737.733C873.174 739.796 870.924 740.816 868.32 740.816H828.112C824.914 740.816 822.133 742.004 819.778 744.358C817.466 746.754 816.32 749.546 816.32 752.733C816.32 756.233 817.508 759.056 819.903 761.191C822.341 763.504 825.081 764.65 828.112 764.65H851.153C855.653 764.65 859.914 765.525 863.945 767.275C867.997 769.025 871.487 771.473 874.403 774.608C877.289 777.671 879.539 781.233 881.153 785.316C882.758 789.4 883.57 793.629 883.57 797.983C883.57 807.296 880.466 815.046 874.278 821.233C871.299 824.348 867.799 826.764 863.778 828.483C859.778 830.212 855.487 831.066 850.903 831.066Z" fill="#00897B"/>
</svg>
